# xmcd
# 
# Track frame offsets:
#     150
#     15365
#     34997
#     51790
#     72297
#     85867
#     104475
#     124597
#     139857
#     154537
#     176757
#     194827
#     211825
#     227162
#     241684
#     260020
# 
# Disc length: 3653
# 
# Revision: 8
# Processed by: cddbd v1.5.2PL0 Copyright (c) Steve Scherf et al.
# Submitted via: fre:ac v1.1beta1pre3
# 
DISCID=dc0e4310
DTITLE=Mílton Nascimento - Crooner
DYEAR=1999
DGENRE=MPB
TTITLE0=Aqueles Olhos Verdes
TTITLE1=Certas Coisas
TTITLE2=Only You
TTITLE3=Mas que Nada
TTITLE4=Frenesi
TTITLE5=Não Sei Dançar
TTITLE6=Resposta
TTITLE7=Beat It
TTITLE8=Se Alguém Telefonar
TTITLE9=Rosa Maria
TTITLE10=Castigo
TTITLE11=Ooh Child
TTITLE12=Lágrima Flor
TTITLE13=Barulho de Trem
TTITLE14=Lamento no Morro
TTITLE15=O Gato da Madame - Edmundo - Cumanã
EXTD=
EXTT0=
EXTT1=
EXTT2=
EXTT3=
EXTT4=
EXTT5=
EXTT6=
EXTT7=
EXTT8=
EXTT9=
EXTT10=
EXTT11=
EXTT12=
EXTT13=
EXTT14=
EXTT15=
PLAYORDER=
